{
  "accessors": [
    {
      "bufferView": 1,
      "componentType": 5126,
      "count": 24015,
      "max": [
        5.0295615196228027,
        1.4968404769897461,
        11.52135181427002
      ],
      "min": [
        -5.0333433151245117,
        -1.6063356399536133,
        -0.69270539283752441
      ],
      "type": "VEC3"
    },
    {
      "bufferView": 1,
      "byteOffset": 288180,
      "componentType": 5126,
      "count": 24015,
      "max": [
        0.99990898370742798,
        0.99999916553497314,
        0.99999755620956421
      ],
      "min": [
        -0.99990898370742798,
        -0.99999958276748657,
        -0.99992525577545166
      ],
      "type": "VEC3"
    },
    {
      "bufferView": 0,
      "componentType": 5125,
      "count": 143982,
      "max": [
        24014
      ],
      "min": [
        0
      ],
      "type": "SCALAR"
    }
  ],
  "asset": {
    "extras": {
      "author": "AaronJOlson (https://sketchfab.com/aaolson817)",
      "license": "CC-BY-4.0 (http://creativecommons.org/licenses/by/4.0/)",
      "source": "https://sketchfab.com/3d-models/bodybuilder-man-anatomy-practice-basemesh-67f60a34b71e497ead72645e8c5e9151",
      "title": "Bodybuilder Man Anatomy Practice Basemesh"
    },
    "generator": "Sketchfab-6.24.0",
    "version": "2.0"
  },
  "bufferViews": [
    {
      "buffer": 0,
      "byteLength": 575928,
      "byteOffset": 0,
      "name": "floatBufferViews",
      "target": 34963
    },
    {
      "buffer": 0,
      "byteLength": 576360,
      "byteOffset": 575928,
      "byteStride": 12,
      "name": "floatBufferViews",
      "target": 34962
    }
  ],
  "buffers": [
    {
      "byteLength": 1152288,
      "uri": "scene.bin"
    }
  ],
  "materials": [
    {
      "doubleSided": true,
      "name": "material_0",
      "pbrMetallicRoughness": {
        "baseColorFactor": [
          1,
          1,
          1,
          1
        ],
        "metallicFactor": 0,
        "roughnessFactor": 0.59999999999999998
      }
    }
  ],
  "meshes": [
    {
      "primitives": [
        {
          "attributes": {
            "NORMAL": 1,
            "POSITION": 0
          },
          "indices": 2,
          "material": 0,
          "mode": 4
        }
      ]
    }
  ],
  "nodes": [
    {
      "children": [
        1
      ],
      "name": "RootNode (gltf orientation matrix)",
      "rotation": [
        -0.70710678118654746,
        -0,
        -0,
        0.70710678118654757
      ]
    },
    {
      "children": [
        2
      ],
      "name": "RootNode (model correction matrix)"
    },
    {
      "children": [
        3
      ],
      "name": "mustle-man-body-basemesh2.OBJ.cleaner.materialmerger.gles"
    },
    {
      "mesh": 0,
      "name": ""
    }
  ],
  "scene": 0,
  "scenes": [
    {
      "name": "OSG_Scene",
      "nodes": [
        0
      ]
    }
  ]
}

